# xmcd CD database generated by RipIT
#
# Track frame offsets:
# 150
# 9183
# 19948
# 31327
# 42951
# 57711
# 74912
# 91285
# 103281
# 119436
# 128442
# 144164
#
# Disc length: 2040 seconds
#
# Revision: 0
# Processed by: cddbd v1.5.2PL0 Copyright (c) Steve Scherf et al.
# Submitted via: RipIT 3.7.0 www.suwald.com/ripit/ripit.html on 2010-08-20 at 14:40
#
DISCID=a507f60c
DTITLE=James Coffey - Lots and Lots of Trucks
DYEAR=2001
DGENRE=Country
TTITLE0=Lots and Lots of Trucks
TTITLE1=Hard Workin Truck
TTITLE2=Emergency
TTITLE3=I'm Truckin'
TTITLE4=Long Way Home
TTITLE5=Rollin' on Down the Road
TTITLE6=My Tractor
TTITLE7=Gotta' Plow that Snow
TTITLE8=I'm Travelin'
TTITLE9=I'm a Crane
TTITLE10=Home Sweet Home
TTITLE11=Lots and Lots of Trucks Instrumental
EXTD=Children's Music
EXTD=\n
EXTT0=
EXTT1=
EXTT2=
EXTT3=
EXTT4=
EXTT5=
EXTT6=
EXTT7=
EXTT8=
EXTT9=
EXTT10=
EXTT11=
PLAYORDER=
